<svg enable-background="new 0 0 32 32" viewBox="0 0 32 32" xmlns="http://www.w3.org/2000/svg"><path d="m26 31.36h-7v-.72h3.14v-6.291c-2.512-.186-4.5-2.296-4.5-4.864l1.005-6.539c.026-.176.177-.306.355-.306h7c.178 0 .329.129.355.305l1 6.484c.004 2.62-1.983 4.733-4.495 4.919v6.291h3.14zm-7.616-12-.028.179c.005 2.238 1.861 4.103 4.145 4.103s4.14-1.864 4.14-4.157l-.019-.124h-8.238zm.11-.72h8.015l-.817-5.28h-6.383zm-6.001 12.72h-5.985c-1.03 0-1.868-.757-1.868-1.688v-15.233c0-2.61 1.064-3.825 1.919-4.802.604-.688 1.081-1.233 1.081-2.109v-6.528c0-.199.161-.36.36-.36h3c.199 0 .36.161.36.36v6.528c0 .876.477 1.421 1.081 2.11.855.976 1.92 2.191 1.92 4.801v15.233c0 .932-.838 1.688-1.868 1.688zm-7.133-4v2.312c0 .533.515.967 1.148.967h5.985c.633 0 1.148-.434 1.148-.967v-15.233c0-2.339-.925-3.395-1.742-4.327-.648-.739-1.259-1.437-1.259-2.584v-6.168h-2.28v6.168c0 1.147-.611 1.845-1.259 2.584-.816.932-1.741 1.988-1.741 4.327v2.201h5.64c.199 0 .36.161.36.36v10c0 .199-.161.36-.36.36zm0-.72h5.28v-9.28h-5.28z"/><path d="m0 0h32v32h-32z" fill="none"/></svg>