<svg viewBox="0 0 64 64" xmlns="http://www.w3.org/2000/svg"><path d="m7 5v2" fill="none" stroke="#000" stroke-linecap="round" stroke-linejoin="round" stroke-width="2"/><path d="m7 11v2" fill="none" stroke="#000" stroke-linecap="round" stroke-linejoin="round" stroke-width="2"/><path d="m3 9h2" fill="none" stroke="#000" stroke-linecap="round" stroke-linejoin="round" stroke-width="2"/><path d="m9 9h2" fill="none" stroke="#000" stroke-linecap="round" stroke-linejoin="round" stroke-width="2"/><circle cx="56.5" cy="12.5" fill="none" r="2.5" stroke="#000" stroke-linecap="round" stroke-linejoin="round" stroke-width="2"/><path d="m5.651 22.1a1.069 1.069 0 1 1 -1.069-1.069 1.069 1.069 0 0 1 1.069 1.069z"/><path d="m27 61s12-18 34-25" fill="none" stroke="#000" stroke-linecap="round" stroke-linejoin="round" stroke-width="2"/><path d="m5.786 35.834q-1.368.039-2.786.166" fill="none" stroke="#000" stroke-linecap="round" stroke-linejoin="round" stroke-width="2"/><path d="m38.049 49.064a41.315 41.315 0 0 0 -11.814-8.664" fill="none" stroke="#000" stroke-linecap="round" stroke-linejoin="round" stroke-width="2"/><path d="m30.651 6.1a1.069 1.069 0 1 1 -1.069-1.069 1.069 1.069 0 0 1 1.069 1.069z"/><g fill="none" stroke="#000" stroke-linejoin="round" stroke-width="2"><path d="m16 49.064v9.936" stroke-linecap="round"/><path d="m12 60h8" stroke-linecap="round"/><path d="m47 60a26.625 26.625 0 0 1 12-9" stroke-linecap="round"/><path d="m37.746 59.941a49.933 49.933 0 0 1 22.508-16.882" stroke-linecap="round"/><path d="m29.865 42.44s8.935-7.865 19.135-11.088" stroke-linecap="round"/><path d="m29.865 42.44s8.512-7.476 18.4-10.833" stroke-linecap="round"/><path d="m49 31.358v-4.358h4.458l-11.458-8.354-11.458 8.354h4.458v11.145" stroke-linecap="round"/><path d="m34.11 45.438a54.974 54.974 0 0 1 14.89-9.438" stroke-linecap="round"/><path d="m6.354 34.832c-2.162 6.268 2.084 13.125 8.7 13.556q.359.024.725.024a10.894 10.894 0 0 0 4.127-.8 10.125 10.125 0 0 0 5.717-12.1l-2.281-8.512h-14.369z" stroke-linecap="round"/><path d="m25.457 34.9a32.808 32.808 0 0 0 -8.165 3.679c-5.088 2.968-8.986 2.132-11.431.826"/></g></svg>